<?xml version="1.0" encoding="UTF-8"?>
<svg id="Layer_2" data-name="Layer 2" xmlns="http://www.w3.org/2000/svg" viewBox="0 0 421.8 421.8">
  <g id="Layer_1-2" data-name="Layer 1">
    <path d="M421.8,0H0v421.8h63.25v-148.26h84.12v148.26h63.25v-144.04c12.29,3.53,23.72,9.24,34.22,17.3,18.69,14.35,32.06,32.82,40.1,55.42l25.17,71.32h67.6l-27.23-73.92c-17.39-46.95-42.71-75.75-75.96-86.4h147.28v-56.73h-59.74c13.08-19.89,19.72-43.43,19.72-70.75s-7.28-54.39-21.78-77.27h61.8V0ZM316.57,134c0,30.43-8.86,51.84-26.57,64.23-3.49,2.44-7.51,4.56-11.83,6.52-17.65,7.99-42.15,12.06-73.75,12.06H63.25V52.49h150.95c15.42,0,29.01,1.46,40.95,4.24,40.89,9.51,61.43,35.21,61.43,77.27Z"/>
  </g>
</svg>